<?xml version="1.0" encoding="UTF-8"?>
<svg xmlns="http://www.w3.org/2000/svg" xmlns:xlink="http://www.w3.org/1999/xlink" width="50px" height="50px" viewBox="0 0 50 50" version="1.1">
<g id="surface1">
<path style=" stroke:none;fill-rule:evenodd;fill:rgb(65.098039%,90.588235%,94.117647%);fill-opacity:1;" d="M 49.210938 29.941406 C 48.957031 33.546875 47.773438 36.902344 45.898438 39.761719 C 42.214844 45.394531 35.851562 49.117188 28.621094 49.117188 C 24.132812 49.117188 19.980469 47.675781 16.597656 45.234375 C 11.378906 41.46875 7.976562 35.320312 7.976562 28.398438 L 20.433594 11.0625 L 29.863281 7.832031 C 32.300781 7.976562 34.621094 8.542969 36.757812 9.460938 C 37.425781 9.75 38.078125 10.074219 38.710938 10.425781 C 45.007812 13.964844 49.261719 20.710938 49.261719 28.453125 C 49.261719 28.953125 49.246094 29.453125 49.210938 29.941406 Z M 49.210938 29.941406 "/>
<path style=" stroke:none;fill-rule:evenodd;fill:rgb(50.196078%,82.352941%,38.039216%);fill-opacity:1;" d="M 38.710938 10.425781 C 45.007812 13.964844 49.261719 20.710938 49.261719 28.453125 C 49.261719 28.953125 49.246094 29.453125 49.210938 29.941406 C 48.742188 33.089844 43.300781 32.789062 43.011719 30.046875 C 42.75 27.519531 40.421875 27.457031 39.347656 27.351562 C 36.710938 27.082031 35.515625 25.195312 38.882812 20.769531 C 41.6875 17.082031 31.402344 13.339844 36.757812 9.460938 C 37.425781 9.75 38.078125 10.074219 38.710938 10.425781 Z M 38.710938 10.425781 "/>
<path style=" stroke:none;fill-rule:evenodd;fill:rgb(51.372549%,51.372549%,51.372549%);fill-opacity:1;" d="M 30.46875 14.992188 L 31.761719 16.140625 C 32.421875 16.730469 32.480469 17.746094 31.894531 18.410156 L 28.710938 21.996094 L 26.28125 20.210938 L 26.433594 17.121094 L 28.207031 15.125 C 28.792969 14.464844 29.8125 14.40625 30.46875 14.992188 Z M 30.46875 14.992188 "/>
<path style=" stroke:none;fill-rule:evenodd;fill:rgb(67.45098%,67.45098%,67.45098%);fill-opacity:1;" d="M 26.433594 17.121094 L 28.710938 21.996094 L 29.707031 24.128906 C 30.445312 25.710938 29.914062 27.308594 29.324219 27.972656 L 28.175781 29.265625 C 27.308594 30.246094 26.585938 29.953125 25.890625 28.894531 L 19.183594 18.96875 L 20.125 14.496094 L 24.882812 13.800781 Z M 26.433594 17.121094 "/>
<path style=" stroke:none;fill-rule:evenodd;fill:rgb(67.45098%,67.45098%,67.45098%);fill-opacity:1;" d="M 14.195312 23.496094 L 16.660156 28.464844 C 17.265625 29.683594 16.820312 30.949219 16.359375 31.464844 L 15.730469 32.175781 C 15.050781 32.941406 14.488281 32.714844 13.945312 31.886719 L 10.011719 27.289062 L 10.941406 24.601562 Z M 14.195312 23.496094 "/>
<path style=" stroke:none;fill-rule:evenodd;fill:rgb(67.45098%,67.45098%,67.45098%);fill-opacity:1;" d="M 4.683594 17.8125 L 9.824219 19.621094 L 9.800781 23.144531 L 6.59375 24.171875 L 1.609375 20.914062 C 0.726562 20.472656 0.433594 19.9375 1.113281 19.175781 L 1.742188 18.464844 C 2.203125 17.949219 3.402344 17.363281 4.683594 17.8125 Z M 4.683594 17.8125 "/>
<path style=" stroke:none;fill-rule:evenodd;fill:rgb(50.196078%,82.352941%,38.039216%);fill-opacity:1;" d="M 34.429688 39.226562 C 36.269531 36.171875 41.929688 35.472656 45.898438 39.761719 C 42.214844 45.394531 35.851562 49.117188 28.621094 49.117188 C 24.132812 49.117188 19.980469 47.675781 16.597656 45.234375 C 16.410156 39.570312 20.980469 38.101562 24.664062 41.148438 C 26.25 42.457031 32.113281 43.089844 34.429688 39.226562 Z M 34.429688 39.226562 "/>
<path style=" stroke:none;fill-rule:evenodd;fill:rgb(51.372549%,51.372549%,51.372549%);fill-opacity:1;" d="M 14 0.886719 C 14.378906 0.886719 14.757812 1.015625 15.0625 1.289062 L 16.355469 2.4375 C 17.015625 3.023438 17.074219 4.042969 16.488281 4.703125 L 14.71875 6.699219 L 10.941406 6.699219 L 9.613281 5.007812 L 12.800781 1.421875 C 13.113281 1.066406 13.554688 0.886719 13.996094 0.886719 Z M 14 0.886719 "/>
<path style=" stroke:none;fill-rule:evenodd;fill:rgb(67.45098%,67.45098%,67.45098%);fill-opacity:1;" d="M 9.613281 5.007812 L 14.71875 6.699219 L 18.191406 7.847656 L 17.578125 12.339844 L 13.734375 14.121094 L 3.097656 8.621094 C 1.964844 8.050781 1.59375 7.375 2.464844 6.394531 L 3.613281 5.101562 C 4.199219 4.4375 5.726562 3.722656 7.378906 4.269531 Z M 9.613281 5.007812 "/>
<path style=" stroke:none;fill-rule:evenodd;fill:rgb(92.54902%,92.54902%,92.54902%);fill-opacity:1;" d="M 24.304688 1.90625 C 26.011719 1.398438 28.273438 1.0625 29.351562 2.03125 C 30.4375 2.984375 30.367188 5.269531 30.0625 7.027344 C 30.015625 7.289062 29.953125 7.558594 29.863281 7.832031 C 29.46875 9.078125 28.617188 10.40625 27.179688 11.722656 L 24.882812 13.800781 L 19.183594 18.96875 L 10.003906 27.28125 L 9.613281 27.648438 C 9.054688 28.113281 8.492188 28.347656 7.976562 28.398438 C 6.234375 28.578125 5.023438 26.695312 6.246094 24.65625 L 6.59375 24.171875 L 13.734375 14.121094 L 18.191406 7.847656 L 19.988281 5.324219 C 21.367188 3.394531 22.878906 2.332031 24.304688 1.90625 Z M 24.304688 1.90625 "/>
<path style=" stroke:none;fill-rule:evenodd;fill:rgb(80.784314%,80.784314%,80.784314%);fill-opacity:1;" d="M 22.976562 11.910156 L 17.277344 17.082031 L 8.09375 25.390625 L 7.707031 25.757812 C 7.144531 26.222656 6.585938 26.457031 6.070312 26.511719 C 5.960938 26.519531 5.859375 26.523438 5.757812 26.519531 C 5.863281 27.695312 6.800781 28.519531 7.976562 28.398438 C 8.492188 28.347656 9.054688 28.113281 9.613281 27.648438 L 10.003906 27.28125 L 19.183594 18.96875 L 24.882812 13.800781 L 27.179688 11.722656 C 28.617188 10.40625 29.46875 9.078125 29.863281 7.832031 C 29.953125 7.558594 30.015625 7.289062 30.0625 7.027344 C 30.367188 5.269531 30.4375 2.984375 29.351562 2.03125 C 29.042969 1.753906 28.640625 1.582031 28.183594 1.492188 C 28.453125 2.578125 28.355469 3.976562 28.15625 5.140625 C 28.109375 5.402344 28.046875 5.667969 27.957031 5.941406 C 27.5625 7.1875 26.710938 8.519531 25.273438 9.832031 Z M 22.976562 11.910156 "/>
<path style=" stroke:none;fill-rule:evenodd;fill:rgb(51.372549%,51.372549%,51.372549%);fill-opacity:1;" d="M 27.289062 27.628906 L 20.578125 17.707031 L 19.183594 18.96875 L 25.890625 28.894531 C 26.585938 29.953125 27.308594 30.246094 28.175781 29.265625 L 28.800781 28.558594 C 28.257812 28.726562 27.765625 28.359375 27.289062 27.628906 Z M 27.289062 27.628906 "/>
<path style=" stroke:none;fill-rule:evenodd;fill:rgb(34.901961%,34.901961%,34.901961%);fill-opacity:1;" d="M 30.753906 17.390625 L 28.007812 20.484375 L 28.710938 21.996094 L 31.894531 18.410156 C 32.480469 17.746094 32.421875 16.726562 31.761719 16.140625 L 30.625 15.128906 L 30.625 15.132812 C 31.277344 15.71875 31.335938 16.734375 30.753906 17.390625 Z M 30.753906 17.390625 "/>
<path style=" stroke:none;fill-rule:evenodd;fill:rgb(34.901961%,34.901961%,34.901961%);fill-opacity:1;" d="M 13.101562 6.152344 L 14.71875 6.699219 L 16.488281 4.703125 C 17.074219 4.042969 17.015625 3.023438 16.355469 2.4375 L 15.46875 1.648438 C 16.121094 2.234375 15.871094 3.140625 15.273438 3.792969 Z M 13.101562 6.152344 "/>
<path style=" stroke:none;fill-rule:evenodd;fill:rgb(51.372549%,51.372549%,51.372549%);fill-opacity:1;" d="M 14.757812 12.683594 L 4.121094 7.179688 C 3.332031 6.785156 2.910156 6.332031 3.027344 5.761719 L 2.464844 6.394531 C 1.59375 7.375 1.964844 8.050781 3.097656 8.621094 L 13.734375 14.121094 Z M 14.757812 12.683594 "/>
<path style=" stroke:none;fill-rule:evenodd;fill:rgb(51.372549%,51.372549%,51.372549%);fill-opacity:1;" d="M 15.140625 30.800781 L 11.207031 26.203125 L 10.011719 27.289062 L 13.945312 31.886719 C 14.488281 32.714844 15.050781 32.941406 15.730469 32.175781 L 16.296875 31.535156 C 15.886719 31.644531 15.507812 31.359375 15.140625 30.800781 Z M 15.140625 30.800781 "/>
<path style=" stroke:none;fill-rule:evenodd;fill:rgb(51.372549%,51.372549%,51.372549%);fill-opacity:1;" d="M 7.53125 22.847656 L 2.550781 19.59375 C 1.957031 19.289062 1.628906 18.953125 1.6875 18.527344 L 1.113281 19.175781 C 0.433594 19.9375 0.726562 20.472656 1.609375 20.914062 L 6.59375 24.171875 Z M 7.53125 22.847656 "/>
<path style=" stroke:none;fill-rule:evenodd;fill:rgb(30.980392%,75.686275%,13.333333%);fill-opacity:1;" d="M 49.261719 28.453125 C 49.261719 20.710938 45.007812 13.964844 38.710938 10.425781 C 38.375 10.238281 38.027344 10.054688 37.675781 9.882812 C 41.054688 14.355469 43.144531 20.554688 43.144531 27.410156 C 43.144531 28.34375 43.105469 29.265625 43.03125 30.167969 C 43.460938 32.796875 48.75 33.042969 49.210938 29.941406 C 49.246094 29.453125 49.261719 28.953125 49.261719 28.453125 Z M 49.261719 28.453125 "/>
<path style=" stroke:none;fill-rule:evenodd;fill:rgb(41.960784%,85.098039%,90.588235%);fill-opacity:1;" d="M 49.210938 29.941406 C 48.75 33.042969 43.460938 32.796875 43.03125 30.167969 C 42.828125 32.59375 42.363281 34.910156 41.675781 37.066406 C 43.136719 37.496094 44.609375 38.367188 45.898438 39.761719 C 47.773438 36.902344 48.957031 33.546875 49.210938 29.941406 Z M 49.210938 29.941406 "/>
<path style=" stroke:none;fill-rule:evenodd;fill:rgb(30.980392%,75.686275%,13.333333%);fill-opacity:1;" d="M 41.675781 37.066406 C 40.207031 41.683594 37.710938 45.578125 34.582031 48.242188 C 39.277344 46.824219 43.269531 43.78125 45.898438 39.761719 C 44.609375 38.367188 43.136719 37.496094 41.675781 37.066406 Z M 41.675781 37.066406 "/>
<path style=" stroke:none;fill-rule:nonzero;fill:rgb(0%,0%,0%);fill-opacity:1;" d="M 50 28.453125 C 50 20.726562 45.8125 13.570312 39.074219 9.785156 C 36.496094 8.335938 33.710938 7.460938 30.785156 7.167969 C 30.785156 7.164062 30.789062 7.15625 30.789062 7.152344 C 31.121094 5.234375 31.226562 2.691406 29.84375 1.480469 C 28.398438 0.179688 25.621094 0.746094 24.09375 1.199219 C 22.378906 1.710938 20.75 2.988281 19.386719 4.898438 L 17.910156 6.976562 L 16.015625 6.351562 L 17.039062 5.195312 C 17.453125 4.726562 17.664062 4.125 17.625 3.496094 C 17.589844 2.871094 17.3125 2.300781 16.84375 1.886719 L 15.550781 0.738281 C 15.085938 0.320312 14.484375 0.113281 13.859375 0.152344 C 13.234375 0.1875 12.660156 0.464844 12.246094 0.929688 L 9.386719 4.15625 L 7.609375 3.566406 C 5.554688 2.886719 3.761719 3.820312 3.058594 4.613281 L 1.910156 5.90625 C 1.378906 6.503906 1.164062 7.105469 1.273438 7.683594 C 1.394531 8.3125 1.882812 8.835938 2.757812 9.277344 L 12.640625 14.386719 L 9.546875 18.742188 L 4.929688 17.117188 C 3.269531 16.53125 1.785156 17.308594 1.191406 17.976562 L 0.5625 18.683594 C 0.109375 19.191406 -0.0703125 19.703125 0.0234375 20.210938 C 0.171875 20.988281 0.9375 21.402344 1.242188 21.554688 L 5.558594 24.375 C 4.5625 26.121094 5.046875 27.699219 5.984375 28.503906 C 6.308594 28.785156 6.746094 29.011719 7.25 29.105469 C 7.332031 31.652344 7.855469 34.132812 8.8125 36.484375 C 8.929688 36.773438 9.207031 36.945312 9.5 36.945312 C 9.589844 36.945312 9.683594 36.929688 9.777344 36.890625 C 10.152344 36.738281 10.335938 36.308594 10.179688 35.929688 C 9.28125 33.71875 8.792969 31.390625 8.722656 28.996094 C 9.113281 28.867188 9.523438 28.65625 9.933594 28.335938 L 13.355469 32.328125 C 13.542969 32.617188 14.042969 33.320312 14.828125 33.378906 C 14.863281 33.378906 14.898438 33.382812 14.929688 33.382812 C 15.40625 33.382812 15.859375 33.140625 16.28125 32.664062 L 16.914062 31.957031 C 17.507812 31.285156 18.105469 29.714844 17.320312 28.136719 L 15.101562 23.667969 L 19.050781 20.089844 L 21.457031 23.648438 C 21.597656 23.859375 21.832031 23.976562 22.070312 23.976562 C 22.210938 23.976562 22.355469 23.933594 22.480469 23.847656 C 22.820312 23.621094 22.90625 23.160156 22.679688 22.824219 L 20.15625 19.085938 L 24.640625 15.019531 L 25.761719 17.421875 C 25.765625 17.433594 25.769531 17.441406 25.773438 17.453125 L 29.039062 24.441406 C 29.671875 25.800781 29.132812 27.074219 28.769531 27.480469 L 27.621094 28.777344 C 27.371094 29.058594 27.203125 29.132812 27.144531 29.125 C 27.058594 29.117188 26.828125 28.976562 26.5 28.480469 L 24.464844 25.46875 C 24.238281 25.132812 23.78125 25.042969 23.441406 25.269531 C 23.105469 25.5 23.015625 25.957031 23.242188 26.296875 L 25.273438 29.300781 C 25.820312 30.128906 26.398438 30.550781 27.039062 30.597656 C 27.078125 30.601562 27.113281 30.601562 27.152344 30.601562 C 27.699219 30.601562 28.226562 30.316406 28.726562 29.753906 L 29.875 28.464844 C 30.578125 27.671875 31.292969 25.78125 30.375 23.816406 L 29.585938 22.125 L 32.449219 18.898438 C 33.304688 17.933594 33.214844 16.449219 32.253906 15.589844 L 30.960938 14.441406 C 30.492188 14.027344 29.890625 13.816406 29.265625 13.855469 C 28.640625 13.890625 28.070312 14.171875 27.65625 14.636719 L 26.628906 15.792969 L 25.785156 13.984375 L 27.675781 12.269531 C 27.675781 12.269531 27.675781 12.265625 27.675781 12.265625 C 28.933594 11.121094 29.839844 9.875 30.363281 8.609375 C 32.089844 8.757812 33.761719 9.125 35.371094 9.707031 C 34.847656 10.28125 34.550781 10.890625 34.46875 11.554688 C 34.261719 13.246094 35.523438 14.746094 36.742188 16.195312 C 38.417969 18.183594 39.121094 19.242188 38.296875 20.324219 C 36.359375 22.867188 35.691406 24.882812 36.308594 26.308594 C 36.613281 27.011719 37.378906 27.890625 39.277344 28.085938 C 39.339844 28.089844 39.402344 28.097656 39.472656 28.101562 C 40.851562 28.230469 42.105469 28.476562 42.28125 30.125 C 42.449219 31.738281 43.980469 32.894531 46.003906 32.941406 C 46.042969 32.941406 46.078125 32.941406 46.113281 32.941406 C 46.796875 32.941406 47.496094 32.800781 48.109375 32.503906 C 47.660156 34.679688 46.851562 36.726562 45.753906 38.578125 C 43.695312 36.703125 41.136719 35.785156 38.609375 36.046875 C 36.492188 36.261719 34.738281 37.285156 33.796875 38.847656 C 32.808594 40.496094 31.140625 41.09375 29.914062 41.304688 C 27.808594 41.664062 25.785156 41.117188 25.132812 40.578125 C 23.070312 38.875 20.609375 38.398438 18.710938 39.328125 C 17.152344 40.09375 16.171875 41.679688 15.917969 43.78125 C 14.382812 42.496094 13.019531 40.96875 11.898438 39.226562 C 11.675781 38.882812 11.21875 38.785156 10.875 39.007812 C 10.535156 39.226562 10.4375 39.683594 10.65625 40.027344 C 14.625 46.179688 21.339844 49.851562 28.621094 49.851562 C 34.332031 49.851562 39.699219 47.628906 43.738281 43.585938 C 47.398438 39.921875 49.566406 35.167969 49.941406 30.054688 C 49.941406 30.054688 49.941406 30.050781 49.941406 30.050781 C 49.949219 30.011719 49.949219 29.972656 49.949219 29.933594 C 49.980469 29.441406 50 28.949219 50 28.453125 Z M 28.761719 15.617188 C 28.910156 15.445312 29.121094 15.34375 29.355469 15.328125 C 29.585938 15.316406 29.808594 15.390625 29.976562 15.542969 L 31.273438 16.695312 C 31.628906 17.011719 31.660156 17.5625 31.34375 17.917969 L 28.90625 20.667969 L 27.308594 17.25 Z M 13.351562 1.910156 C 13.503906 1.742188 13.714844 1.636719 13.945312 1.625 C 14.179688 1.609375 14.398438 1.6875 14.570312 1.839844 L 15.863281 2.988281 C 16.035156 3.140625 16.136719 3.351562 16.152344 3.585938 C 16.164062 3.820312 16.089844 4.042969 15.9375 4.214844 L 14.488281 5.84375 L 10.910156 4.660156 Z M 3.429688 7.960938 C 2.785156 7.636719 2.726562 7.425781 2.722656 7.40625 C 2.710938 7.347656 2.761719 7.171875 3.015625 6.886719 L 4.164062 5.589844 C 4.523438 5.1875 5.726562 4.5 7.148438 4.96875 L 14.457031 7.390625 C 14.46875 7.394531 14.480469 7.398438 14.492188 7.402344 L 17.011719 8.234375 L 13.503906 13.171875 Z M 1.941406 20.253906 C 1.617188 20.09375 1.511719 19.976562 1.480469 19.9375 C 1.492188 19.902344 1.535156 19.8125 1.667969 19.664062 L 2.292969 18.957031 C 2.550781 18.667969 3.445312 18.160156 4.441406 18.511719 L 8.65625 19.992188 L 6.402344 23.164062 L 2.015625 20.296875 C 1.992188 20.28125 1.964844 20.269531 1.941406 20.253906 Z M 16 28.792969 C 16.46875 29.734375 16.0625 30.6875 15.808594 30.976562 L 15.175781 31.6875 C 15.046875 31.832031 14.964844 31.882812 14.933594 31.898438 C 14.886719 31.875 14.761719 31.78125 14.5625 31.480469 C 14.546875 31.453125 14.527344 31.429688 14.507812 31.40625 L 11.039062 27.351562 L 13.964844 24.699219 Z M 26.679688 11.175781 L 24.40625 13.238281 C 24.394531 13.25 24.382812 13.261719 24.371094 13.273438 L 9.128906 27.089844 C 8.71875 27.425781 8.300781 27.621094 7.914062 27.664062 C 7.90625 27.664062 7.898438 27.664062 7.890625 27.667969 C 7.535156 27.703125 7.207031 27.609375 6.945312 27.386719 C 6.464844 26.972656 6.253906 26.09375 6.867188 25.058594 L 14.328125 14.5625 C 14.332031 14.554688 14.339844 14.546875 14.34375 14.539062 L 20.585938 5.753906 C 21.757812 4.117188 23.117188 3.03125 24.515625 2.613281 C 26.546875 2.011719 28.210938 1.996094 28.863281 2.585938 C 29.515625 3.15625 29.695312 4.8125 29.335938 6.902344 C 29.089844 8.339844 28.171875 9.816406 26.679688 11.175781 Z M 46.039062 31.464844 C 44.976562 31.441406 43.847656 30.921875 43.746094 29.96875 C 43.433594 26.980469 40.75 26.738281 39.605469 26.632812 C 39.542969 26.628906 39.480469 26.621094 39.425781 26.617188 C 38.769531 26.550781 37.933594 26.339844 37.664062 25.71875 C 37.289062 24.859375 37.949219 23.21875 39.472656 21.214844 C 41.097656 19.078125 39.308594 16.949219 37.871094 15.242188 C 36.855469 14.035156 35.804688 12.789062 35.9375 11.734375 C 35.996094 11.253906 36.300781 10.789062 36.863281 10.3125 C 37.367188 10.542969 37.863281 10.796875 38.347656 11.070312 C 44.625 14.597656 48.523438 21.257812 48.523438 28.453125 C 48.523438 28.9375 48.503906 29.414062 48.472656 29.890625 C 48.257812 31.085938 47.035156 31.488281 46.039062 31.464844 Z M 28.621094 48.378906 C 24.511719 48.378906 20.597656 47.117188 17.332031 44.851562 C 17.34375 42.804688 18.074219 41.285156 19.359375 40.65625 C 20.734375 39.980469 22.585938 40.386719 24.195312 41.71875 C 25.375 42.691406 27.941406 43.140625 30.164062 42.757812 C 31.695312 42.492188 33.789062 41.734375 35.0625 39.609375 C 35.75 38.464844 37.132812 37.679688 38.761719 37.511719 C 40.9375 37.289062 43.160156 38.132812 44.941406 39.839844 C 41.339844 44.996094 35.367188 48.378906 28.621094 48.378906 Z M 28.621094 48.378906 "/>
<path style=" stroke:none;fill-rule:nonzero;fill:rgb(0%,0%,0%);fill-opacity:1;" d="M 24.246094 4.253906 C 23.839844 4.285156 23.539062 4.644531 23.570312 5.050781 C 23.605469 5.457031 23.960938 5.757812 24.367188 5.722656 C 25.109375 5.664062 26.089844 6.5625 26.179688 7.386719 C 26.222656 7.765625 26.542969 8.046875 26.914062 8.046875 C 26.941406 8.046875 26.96875 8.042969 26.992188 8.039062 C 27.398438 7.996094 27.691406 7.632812 27.648438 7.226562 C 27.46875 5.597656 25.785156 4.121094 24.246094 4.253906 Z M 24.246094 4.253906 "/>
</g>
</svg>
